<svg xmlns="http://www.w3.org/2000/svg" xmlns:xlink="http://www.w3.org/1999/xlink" width="500" zoomAndPan="magnify" viewBox="0 0 375 374.999991" height="500" preserveAspectRatio="xMidYMid meet" version="1.0"><defs><clipPath id="776a09dfab"><path d="M 70.703125 276 L 303.953125 276 L 303.953125 375 L 70.703125 375 Z M 70.703125 276 " clip-rule="nonzero"/></clipPath><clipPath id="276037a4f7"><path d="M 119 116.527344 L 255 116.527344 L 255 253 L 119 253 Z M 119 116.527344 " clip-rule="nonzero"/></clipPath></defs><g clip-path="url(#776a09dfab)"><path fill="#ffffff" d="M 211.878906 276.671875 L 162.777344 276.671875 C 161.269531 276.675781 159.765625 276.710938 158.257812 276.789062 C 156.753906 276.863281 155.253906 276.976562 153.753906 277.125 C 152.253906 277.273438 150.761719 277.460938 149.269531 277.683594 C 147.78125 277.90625 146.296875 278.167969 144.820312 278.460938 C 143.34375 278.757812 141.875 279.089844 140.414062 279.457031 C 138.953125 279.824219 137.5 280.230469 136.058594 280.667969 C 134.617188 281.109375 133.1875 281.582031 131.769531 282.09375 C 130.351562 282.601562 128.949219 283.144531 127.554688 283.726562 C 126.164062 284.304688 124.789062 284.917969 123.425781 285.5625 C 122.066406 286.210938 120.71875 286.886719 119.390625 287.601562 C 118.0625 288.3125 116.753906 289.058594 115.460938 289.835938 C 114.171875 290.613281 112.898438 291.417969 111.644531 292.257812 C 110.394531 293.097656 109.164062 293.96875 107.953125 294.867188 C 106.742188 295.769531 105.554688 296.695312 104.390625 297.65625 C 103.226562 298.613281 102.085938 299.601562 100.972656 300.613281 C 99.855469 301.628906 98.765625 302.667969 97.699219 303.738281 C 96.632812 304.804688 95.59375 305.898438 94.582031 307.015625 C 93.570312 308.136719 92.589844 309.28125 91.632812 310.445312 C 90.675781 311.613281 89.75 312.804688 88.851562 314.015625 C 87.953125 315.230469 87.085938 316.464844 86.25 317.71875 C 85.414062 318.976562 84.605469 320.25 83.832031 321.546875 C 83.058594 322.839844 82.316406 324.152344 81.605469 325.484375 C 80.894531 326.816406 80.214844 328.164062 79.570312 329.53125 C 78.925781 330.894531 78.316406 332.273438 77.738281 333.671875 C 77.160156 335.066406 76.617188 336.472656 76.109375 337.894531 C 75.601562 339.316406 75.128906 340.75 74.691406 342.195312 C 74.25 343.640625 73.847656 345.09375 73.480469 346.558594 C 73.113281 348.023438 72.785156 349.496094 72.488281 350.976562 C 72.195312 352.457031 71.933594 353.945312 71.710938 355.441406 C 71.488281 356.933594 71.304688 358.433594 71.15625 359.933594 C 71.007812 361.4375 70.894531 362.941406 70.820312 364.453125 C 70.742188 365.960938 70.703125 367.46875 70.703125 368.980469 C 70.703125 369.382812 70.742188 369.785156 70.820312 370.179688 C 70.898438 370.574219 71.015625 370.960938 71.171875 371.335938 C 71.324219 371.707031 71.515625 372.0625 71.738281 372.398438 C 71.960938 372.734375 72.214844 373.046875 72.5 373.332031 C 72.785156 373.617188 73.097656 373.871094 73.429688 374.097656 C 73.765625 374.320312 74.121094 374.511719 74.492188 374.664062 C 74.863281 374.820312 75.25 374.9375 75.644531 375.015625 C 76.039062 375.09375 76.4375 375.132812 76.839844 375.132812 L 297.816406 375.132812 C 298.21875 375.132812 298.617188 375.09375 299.011719 375.015625 C 299.40625 374.9375 299.792969 374.820312 300.164062 374.664062 C 300.535156 374.511719 300.890625 374.320312 301.226562 374.097656 C 301.558594 373.871094 301.871094 373.617188 302.15625 373.332031 C 302.441406 373.046875 302.695312 372.734375 302.917969 372.398438 C 303.144531 372.0625 303.332031 371.707031 303.484375 371.335938 C 303.640625 370.960938 303.757812 370.574219 303.835938 370.179688 C 303.914062 369.785156 303.953125 369.382812 303.953125 368.980469 C 303.953125 367.46875 303.914062 365.960938 303.835938 364.453125 C 303.761719 362.941406 303.648438 361.4375 303.5 359.933594 C 303.351562 358.433594 303.167969 356.933594 302.945312 355.441406 C 302.722656 353.945312 302.460938 352.457031 302.167969 350.976562 C 301.871094 349.496094 301.542969 348.023438 301.175781 346.558594 C 300.808594 345.09375 300.40625 343.640625 299.964844 342.195312 C 299.527344 340.75 299.054688 339.316406 298.546875 337.894531 C 298.039062 336.472656 297.496094 335.066406 296.917969 333.671875 C 296.339844 332.273438 295.730469 330.894531 295.085938 329.53125 C 294.441406 328.164062 293.761719 326.816406 293.050781 325.484375 C 292.34375 324.152344 291.597656 322.839844 290.824219 321.546875 C 290.050781 320.25 289.242188 318.976562 288.40625 317.71875 C 287.570312 316.464844 286.703125 315.230469 285.804688 314.015625 C 284.90625 312.804688 283.980469 311.613281 283.023438 310.445312 C 282.066406 309.28125 281.085938 308.136719 280.074219 307.015625 C 279.0625 305.898438 278.023438 304.804688 276.957031 303.738281 C 275.890625 302.667969 274.800781 301.628906 273.683594 300.613281 C 272.570312 299.601562 271.429688 298.613281 270.265625 297.65625 C 269.101562 296.695312 267.914062 295.769531 266.703125 294.867188 C 265.492188 293.96875 264.261719 293.097656 263.011719 292.257812 C 261.757812 291.417969 260.484375 290.613281 259.195312 289.835938 C 257.902344 289.058594 256.59375 288.3125 255.265625 287.601562 C 253.9375 286.886719 252.589844 286.210938 251.230469 285.5625 C 249.867188 284.917969 248.492188 284.304688 247.101562 283.726562 C 245.707031 283.144531 244.304688 282.601562 242.886719 282.09375 C 241.46875 281.582031 240.039062 281.109375 238.597656 280.667969 C 237.15625 280.230469 235.703125 279.824219 234.242188 279.457031 C 232.78125 279.089844 231.3125 278.757812 229.835938 278.460938 C 228.359375 278.167969 226.875 277.90625 225.386719 277.683594 C 223.894531 277.460938 222.402344 277.273438 220.902344 277.125 C 219.402344 276.976562 217.902344 276.863281 216.398438 276.789062 C 214.894531 276.710938 213.386719 276.675781 211.878906 276.671875 Z M 211.878906 276.671875 " fill-opacity="1" fill-rule="nonzero"/></g><g clip-path="url(#276037a4f7)"><path fill="#ffffff" d="M 254.847656 184.367188 C 254.847656 185.472656 254.820312 186.582031 254.765625 187.6875 C 254.710938 188.792969 254.632812 189.898438 254.523438 191 C 254.414062 192.101562 254.277344 193.203125 254.117188 194.296875 C 253.953125 195.394531 253.765625 196.484375 253.550781 197.570312 C 253.335938 198.65625 253.09375 199.738281 252.824219 200.8125 C 252.554688 201.886719 252.261719 202.957031 251.941406 204.015625 C 251.621094 205.074219 251.273438 206.128906 250.902344 207.171875 C 250.527344 208.214844 250.132812 209.246094 249.707031 210.269531 C 249.285156 211.292969 248.835938 212.304688 248.367188 213.308594 C 247.894531 214.308594 247.394531 215.296875 246.875 216.273438 C 246.355469 217.253906 245.808594 218.214844 245.242188 219.167969 C 244.671875 220.117188 244.082031 221.050781 243.46875 221.972656 C 242.855469 222.894531 242.21875 223.800781 241.558594 224.6875 C 240.902344 225.578125 240.222656 226.453125 239.523438 227.308594 C 238.820312 228.164062 238.097656 229.003906 237.355469 229.824219 C 236.613281 230.644531 235.851562 231.449219 235.070312 232.230469 C 234.289062 233.015625 233.492188 233.777344 232.671875 234.523438 C 231.851562 235.265625 231.015625 235.988281 230.164062 236.691406 C 229.308594 237.394531 228.4375 238.074219 227.550781 238.734375 C 226.660156 239.394531 225.757812 240.035156 224.839844 240.648438 C 223.921875 241.265625 222.988281 241.855469 222.039062 242.425781 C 221.09375 242.996094 220.132812 243.542969 219.15625 244.0625 C 218.183594 244.585938 217.195312 245.085938 216.195312 245.558594 C 215.199219 246.03125 214.1875 246.480469 213.167969 246.90625 C 212.144531 247.328125 211.117188 247.726562 210.074219 248.101562 C 209.035156 248.472656 207.984375 248.820312 206.929688 249.140625 C 205.871094 249.464844 204.804688 249.757812 203.734375 250.027344 C 202.664062 250.296875 201.585938 250.539062 200.5 250.757812 C 199.417969 250.972656 198.328125 251.160156 197.234375 251.324219 C 196.140625 251.488281 195.046875 251.621094 193.945312 251.730469 C 192.847656 251.839844 191.746094 251.921875 190.640625 251.976562 C 189.539062 252.03125 188.433594 252.058594 187.328125 252.058594 C 186.222656 252.058594 185.117188 252.03125 184.015625 251.976562 C 182.910156 251.921875 181.808594 251.839844 180.710938 251.730469 C 179.609375 251.621094 178.515625 251.488281 177.421875 251.324219 C 176.328125 251.160156 175.238281 250.972656 174.15625 250.757812 C 173.070312 250.539062 171.992188 250.296875 170.921875 250.027344 C 169.851562 249.757812 168.785156 249.464844 167.726562 249.140625 C 166.671875 248.820312 165.621094 248.472656 164.582031 248.101562 C 163.542969 247.726562 162.511719 247.328125 161.488281 246.90625 C 160.46875 246.480469 159.457031 246.03125 158.460938 245.558594 C 157.460938 245.085938 156.472656 244.585938 155.5 244.0625 C 154.523438 243.542969 153.5625 242.996094 152.617188 242.425781 C 151.667969 241.855469 150.734375 241.265625 149.816406 240.648438 C 148.898438 240.035156 147.996094 239.394531 147.105469 238.734375 C 146.21875 238.074219 145.347656 237.394531 144.492188 236.691406 C 143.640625 235.988281 142.804688 235.265625 141.984375 234.523438 C 141.164062 233.777344 140.367188 233.015625 139.585938 232.230469 C 138.804688 231.449219 138.042969 230.644531 137.300781 229.824219 C 136.558594 229.003906 135.835938 228.164062 135.132812 227.308594 C 134.433594 226.453125 133.753906 225.578125 133.097656 224.6875 C 132.4375 223.800781 131.800781 222.894531 131.1875 221.972656 C 130.574219 221.050781 129.984375 220.117188 129.414062 219.167969 C 128.847656 218.214844 128.300781 217.253906 127.78125 216.273438 C 127.261719 215.296875 126.761719 214.308594 126.292969 213.308594 C 125.820312 212.304688 125.371094 211.292969 124.949219 210.269531 C 124.523438 209.246094 124.128906 208.214844 123.753906 207.171875 C 123.382812 206.128906 123.035156 205.074219 122.714844 204.015625 C 122.394531 202.957031 122.101562 201.886719 121.832031 200.8125 C 121.5625 199.738281 121.320312 198.65625 121.105469 197.570312 C 120.890625 196.484375 120.703125 195.394531 120.539062 194.296875 C 120.378906 193.203125 120.242188 192.101562 120.132812 191 C 120.023438 189.898438 119.945312 188.792969 119.890625 187.6875 C 119.835938 186.582031 119.808594 185.472656 119.808594 184.367188 C 119.808594 183.257812 119.835938 182.152344 119.890625 181.042969 C 119.945312 179.9375 120.023438 178.832031 120.132812 177.730469 C 120.242188 176.628906 120.378906 175.527344 120.539062 174.433594 C 120.703125 173.335938 120.890625 172.246094 121.105469 171.160156 C 121.320312 170.074219 121.5625 168.992188 121.832031 167.917969 C 122.101562 166.84375 122.394531 165.777344 122.714844 164.714844 C 123.035156 163.65625 123.382812 162.605469 123.753906 161.5625 C 124.128906 160.519531 124.523438 159.484375 124.949219 158.460938 C 125.371094 157.4375 125.820312 156.425781 126.292969 155.421875 C 126.761719 154.421875 127.261719 153.433594 127.78125 152.457031 C 128.300781 151.480469 128.847656 150.515625 129.414062 149.566406 C 129.984375 148.613281 130.574219 147.679688 131.1875 146.757812 C 131.800781 145.835938 132.4375 144.929688 133.097656 144.042969 C 133.753906 143.152344 134.433594 142.277344 135.132812 141.421875 C 135.835938 140.566406 136.558594 139.726562 137.300781 138.90625 C 138.042969 138.085938 138.804688 137.285156 139.585938 136.5 C 140.367188 135.71875 141.164062 134.953125 141.984375 134.210938 C 142.804688 133.464844 143.640625 132.742188 144.492188 132.039062 C 145.347656 131.335938 146.21875 130.65625 147.105469 129.996094 C 147.996094 129.335938 148.898438 128.699219 149.816406 128.082031 C 150.734375 127.464844 151.667969 126.875 152.617188 126.304688 C 153.5625 125.734375 154.523438 125.1875 155.5 124.667969 C 156.472656 124.144531 157.460938 123.648438 158.460938 123.171875 C 159.457031 122.699219 160.46875 122.25 161.488281 121.828125 C 162.511719 121.402344 163.542969 121.003906 164.582031 120.632812 C 165.621094 120.257812 166.671875 119.910156 167.726562 119.589844 C 168.785156 119.265625 169.851562 118.972656 170.921875 118.703125 C 171.992188 118.433594 173.070312 118.191406 174.15625 117.972656 C 175.238281 117.757812 176.328125 117.570312 177.421875 117.40625 C 178.515625 117.242188 179.609375 117.109375 180.710938 117 C 181.808594 116.890625 182.910156 116.808594 184.015625 116.753906 C 185.117188 116.699219 186.222656 116.675781 187.328125 116.675781 C 188.433594 116.675781 189.539062 116.699219 190.640625 116.753906 C 191.746094 116.808594 192.847656 116.890625 193.945312 117 C 195.046875 117.109375 196.140625 117.242188 197.234375 117.40625 C 198.328125 117.570312 199.417969 117.757812 200.5 117.972656 C 201.585938 118.191406 202.664062 118.433594 203.734375 118.703125 C 204.804688 118.972656 205.871094 119.265625 206.929688 119.589844 C 207.984375 119.910156 209.035156 120.257812 210.074219 120.632812 C 211.117188 121.003906 212.144531 121.402344 213.167969 121.828125 C 214.1875 122.25 215.199219 122.699219 216.195312 123.171875 C 217.195312 123.648438 218.183594 124.144531 219.15625 124.667969 C 220.132812 125.1875 221.09375 125.734375 222.039062 126.304688 C 222.988281 126.875 223.921875 127.464844 224.839844 128.082031 C 225.757812 128.699219 226.660156 129.335938 227.550781 129.996094 C 228.4375 130.65625 229.308594 131.335938 230.164062 132.039062 C 231.015625 132.742188 231.851562 133.464844 232.671875 134.210938 C 233.492188 134.953125 234.289062 135.71875 235.070312 136.5 C 235.851562 137.285156 236.613281 138.085938 237.355469 138.90625 C 238.097656 139.726562 238.820312 140.566406 239.523438 141.421875 C 240.222656 142.277344 240.902344 143.152344 241.558594 144.042969 C 242.21875 144.929688 242.855469 145.835938 243.46875 146.757812 C 244.082031 147.679688 244.671875 148.613281 245.242188 149.566406 C 245.808594 150.515625 246.355469 151.480469 246.875 152.457031 C 247.394531 153.433594 247.894531 154.421875 248.367188 155.421875 C 248.835938 156.425781 249.285156 157.4375 249.707031 158.460938 C 250.132812 159.484375 250.527344 160.519531 250.902344 161.5625 C 251.273438 162.605469 251.621094 163.65625 251.941406 164.714844 C 252.261719 165.777344 252.554688 166.84375 252.824219 167.917969 C 253.09375 168.992188 253.335938 170.074219 253.550781 171.160156 C 253.765625 172.246094 253.953125 173.335938 254.117188 174.433594 C 254.277344 175.527344 254.414062 176.628906 254.523438 177.730469 C 254.632812 178.832031 254.710938 179.9375 254.765625 181.042969 C 254.820312 182.152344 254.847656 183.257812 254.847656 184.367188 Z M 254.847656 184.367188 " fill-opacity="1" fill-rule="nonzero"/></g></svg>