<svg xmlns="http://www.w3.org/2000/svg" xmlns:xlink="http://www.w3.org/1999/xlink" width="500" zoomAndPan="magnify" viewBox="0 0 375 374.999991" height="500" preserveAspectRatio="xMidYMid meet" version="1.0"><path fill="#ffffff" d="M 187.5 49.3125 L 0 147.992188 L 187.5 246.675781 L 296.046875 191.785156 C 296.046875 191.785156 296.046875 241.539062 296.046875 266.40625 C 296.046875 305.882812 335.523438 305.882812 335.523438 305.882812 L 335.523438 286.148438 C 335.523438 286.148438 315.789062 285.019531 315.789062 266.402344 C 315.789062 236.796875 315.789062 180.675781 315.789062 180.675781 L 375 147.992188 Z M 187.5 49.3125 " fill-opacity="1" fill-rule="nonzero"/><path fill="#ffffff" d="M 98.679688 226.9375 L 98.679688 266.410156 C 98.679688 276.21875 105.097656 289.355469 118.417969 296.015625 L 187.5 325.621094 L 246.707031 296.015625 C 260.03125 289.355469 277.246094 276.167969 276.316406 266.40625 L 276.316406 226.9375 L 187.5 270.109375 Z M 98.679688 226.9375 " fill-opacity="1" fill-rule="nonzero"/></svg>