<svg xmlns="http://www.w3.org/2000/svg" xmlns:xlink="http://www.w3.org/1999/xlink" width="500" zoomAndPan="magnify" viewBox="0 0 375 374.999991" height="500" preserveAspectRatio="xMidYMid meet" version="1.0"><path fill="#ffffff" d="M 159.179688 270.578125 L 159.179688 199.027344 C 191.414062 198.480469 247.710938 196.40625 249.402344 232.328125 C 251.210938 270.472656 197.605469 270.578125 159.179688 270.578125 Z M 159.179688 102.417969 C 186.042969 101.925781 232.972656 100.054688 234.394531 132.40625 C 235.890625 166.746094 191.214844 166.84375 159.179688 166.84375 Z M 267.84375 174.316406 C 267.84375 174.316406 297.53125 162.460938 294.71875 121 C 291.011719 66.300781 216.640625 65.378906 216.640625 65.378906 L 216.640625 12.503906 L 184.058594 12.503906 L 184.058594 64.011719 L 158.582031 64.277344 L 158.582031 12.503906 L 126.144531 12.503906 L 126.144531 65.195312 L 60.984375 65.195312 L 60.984375 100.195312 C 92.875 100.195312 102.957031 97.816406 102.957031 124.027344 L 102.957031 250.957031 C 102.957031 269.414062 102.941406 269.847656 67.65625 269.847656 L 60.984375 308.738281 L 125.957031 308.738281 L 125.957031 362.492188 L 158.582031 362.492188 L 158.582031 309.242188 L 184.175781 309.242188 L 184.175781 362.492188 L 216.460938 362.492188 L 216.460938 309.046875 C 306.304688 305.167969 314.015625 261.335938 314.015625 230.308594 C 314.015625 181.910156 267.84375 174.316406 267.84375 174.316406 " fill-opacity="1" fill-rule="nonzero"/></svg>