<svg xmlns="http://www.w3.org/2000/svg" xmlns:xlink="http://www.w3.org/1999/xlink" width="500" zoomAndPan="magnify" viewBox="0 0 375 374.999991" height="500" preserveAspectRatio="xMidYMid meet" version="1.0"><defs><clipPath id="95851b6258"><path d="M 0 251 L 375 251 L 375 312.75 L 0 312.75 Z M 0 251 " clip-rule="nonzero"/></clipPath><clipPath id="ce569dbfd6"><path d="M 49 62.34375 L 326 62.34375 L 326 237 L 49 237 Z M 49 62.34375 " clip-rule="nonzero"/></clipPath></defs><g clip-path="url(#95851b6258)"><path fill="#ffffff" d="M 241.601562 296.988281 L 133.398438 296.988281 C 132.652344 296.988281 132.175781 296.203125 132.519531 295.542969 L 140.847656 279.496094 C 141.015625 279.167969 141.355469 278.964844 141.726562 278.964844 L 233.273438 278.964844 C 233.640625 278.964844 233.980469 279.167969 234.152344 279.496094 L 242.480469 295.542969 C 242.824219 296.203125 242.347656 296.988281 241.601562 296.988281 Z M 372.609375 298.808594 L 327.800781 253.96875 C 326.269531 252.433594 324.195312 251.578125 322.03125 251.578125 L 52.96875 251.578125 C 50.804688 251.578125 48.730469 252.433594 47.199219 253.96875 L 2.390625 298.808594 C 0.859375 300.34375 0 302.417969 0 304.585938 C 0 309.09375 3.652344 312.75 8.160156 312.75 L 366.839844 312.75 C 371.347656 312.75 375 309.09375 375 304.585938 C 375 302.417969 374.140625 300.34375 372.609375 298.808594 " fill-opacity="1" fill-rule="nonzero"/></g><g clip-path="url(#ce569dbfd6)"><path fill="#ffffff" d="M 312 62.433594 L 63 62.433594 C 55.796875 62.433594 49.902344 68.332031 49.902344 75.542969 L 49.902344 223.484375 C 49.902344 230.695312 55.796875 236.59375 63 236.59375 L 312 236.59375 C 319.203125 236.59375 325.097656 230.695312 325.097656 223.484375 L 325.097656 75.542969 C 325.097656 68.332031 319.203125 62.433594 312 62.433594 Z M 309.9375 77.605469 L 309.9375 221.421875 L 65.0625 221.421875 L 65.0625 77.605469 L 309.9375 77.605469 " fill-opacity="1" fill-rule="nonzero"/></g></svg>