<svg xmlns="http://www.w3.org/2000/svg" xmlns:xlink="http://www.w3.org/1999/xlink" width="500" zoomAndPan="magnify" viewBox="0 0 375 374.999991" height="500" preserveAspectRatio="xMidYMid meet" version="1.0"><defs><filter x="0%" y="0%" width="100%" height="100%" id="e6f5aba480"><feColorMatrix values="0 0 0 0 1 0 0 0 0 1 0 0 0 0 1 0 0 0 1 0" color-interpolation-filters="sRGB"/></filter><mask id="3454838408"><g filter="url(#e6f5aba480)"><rect x="-37.5" width="450" fill="#000000" y="-37.499999" height="449.999989" fill-opacity="0.75"/></g></mask><clipPath id="fc68c6aad7"><path d="M 2.5 0 L 303 0 L 303 375 L 2.5 375 Z M 2.5 0 " clip-rule="nonzero"/></clipPath><clipPath id="ae2205f3f0"><rect x="0" width="306" y="0" height="375"/></clipPath></defs><g mask="url(#3454838408)"><g transform="matrix(1, 0, 0, 1, 35, 0)"><g clip-path="url(#ae2205f3f0)"><g clip-path="url(#fc68c6aad7)"><path fill="#ffffff" d="M 210.15625 0.136719 L 52.101562 0.136719 C 24.964844 0.136719 2.886719 22.226562 2.886719 49.378906 L 2.886719 326.007812 C 2.886719 353.15625 24.960938 375.253906 52.101562 375.253906 L 253.589844 375.253906 C 280.722656 375.253906 302.800781 353.167969 302.800781 326.007812 L 302.800781 103.753906 Z M 216.636719 42.574219 L 264.851562 96.503906 L 216.636719 96.503906 Z M 253.589844 351.792969 L 52.101562 351.792969 C 37.894531 351.792969 26.332031 340.226562 26.332031 326.007812 L 26.332031 49.378906 C 26.332031 35.164062 37.894531 23.597656 52.101562 23.597656 L 193.1875 23.597656 L 193.1875 119.964844 L 279.355469 119.964844 L 279.355469 326.007812 C 279.355469 340.226562 267.796875 351.792969 253.589844 351.792969 Z M 253.589844 351.792969 " fill-opacity="1" fill-rule="nonzero"/></g><path fill="#ffffff" d="M 116.042969 156.410156 L 224.164062 156.410156 L 224.164062 179.871094 L 116.042969 179.871094 Z M 116.042969 156.410156 " fill-opacity="1" fill-rule="nonzero"/><path fill="#ffffff" d="M 116.042969 210.5 L 224.164062 210.5 L 224.164062 233.960938 L 116.042969 233.960938 Z M 116.042969 210.5 " fill-opacity="1" fill-rule="nonzero"/><path fill="#ffffff" d="M 116.042969 264.589844 L 224.164062 264.589844 L 224.164062 288.050781 L 116.042969 288.050781 Z M 116.042969 264.589844 " fill-opacity="1" fill-rule="nonzero"/><path fill="#ffffff" d="M 70.933594 156.410156 L 93.417969 156.410156 L 93.417969 179.871094 L 70.933594 179.871094 Z M 70.933594 156.410156 " fill-opacity="1" fill-rule="nonzero"/><path fill="#ffffff" d="M 70.933594 210.5 L 93.417969 210.5 L 93.417969 233.960938 L 70.933594 233.960938 Z M 70.933594 210.5 " fill-opacity="1" fill-rule="nonzero"/><path fill="#ffffff" d="M 70.933594 264.589844 L 93.417969 264.589844 L 93.417969 288.050781 L 70.933594 288.050781 Z M 70.933594 264.589844 " fill-opacity="1" fill-rule="nonzero"/></g></g></g></svg>